<?xml version="1.0" encoding="UTF-8" standalone="no"?>
<!-- Created with Inkscape (http://www.inkscape.org/) -->

<svg
   xmlns:dc="http://purl.org/dc/elements/1.1/"
   xmlns:cc="http://creativecommons.org/ns#"
   xmlns:rdf="http://www.w3.org/1999/02/22-rdf-syntax-ns#"
   xmlns:svg="http://www.w3.org/2000/svg"
   xmlns="http://www.w3.org/2000/svg"
   xmlns:sodipodi="http://sodipodi.sourceforge.net/DTD/sodipodi-0.dtd"
   xmlns:inkscape="http://www.inkscape.org/namespaces/inkscape"
   width="108"
   height="108"
   viewBox="0 0 28.574999 28.575001"
   version="1.1"
   id="svg8"
   inkscape:version="0.92.2 (5c3e80d, 2017-08-06)"
   sodipodi:docname="adaptive-keylines.svg">
  <defs
     id="defs2">
    <clipPath
       clipPathUnits="userSpaceOnUse"
       id="clipPath853">
      <path
         d="M 0,108 H 108 V 0 H 0 Z"
         id="path851"
         inkscape:connector-curvature="0" />
    </clipPath>
    <clipPath
       clipPathUnits="userSpaceOnUse"
       id="clipPath863">
      <path
         d="M 0,108 H 108 V 0 H 0 Z"
         id="path861"
         inkscape:connector-curvature="0" />
    </clipPath>
    <clipPath
       clipPathUnits="userSpaceOnUse"
       id="clipPath871">
      <path
         d="M -0.0706177,108.071 H 108.071 V -0.0706635 H -0.0706177 Z"
         id="path869"
         inkscape:connector-curvature="0" />
    </clipPath>
    <clipPath
       clipPathUnits="userSpaceOnUse"
       id="clipPath875">
      <path
         d="M -0.0352631,108.035 H 108.035 V -0.0353088 H -0.0352631 Z"
         id="path873"
         inkscape:connector-curvature="0" />
    </clipPath>
    <clipPath
       clipPathUnits="userSpaceOnUse"
       id="clipPath879">
      <path
         d="M -0.0352631,108.035 H 108.035 V -0.0353088 H -0.0352631 Z"
         id="path877"
         inkscape:connector-curvature="0" />
    </clipPath>
    <clipPath
       clipPathUnits="userSpaceOnUse"
       id="clipPath923">
      <path
         d="M 28,80 H 80 V 28 H 28 Z"
         id="path921"
         inkscape:connector-curvature="0" />
    </clipPath>
    <clipPath
       clipPathUnits="userSpaceOnUse"
       id="clipPath939">
      <path
         d="M 36,72 H 72 V 36 H 36 Z"
         id="path937"
         inkscape:connector-curvature="0" />
    </clipPath>
    <clipPath
       clipPathUnits="userSpaceOnUse"
       id="clipPath955">
      <path
         d="M 27.9,72.1 H 80.1 V 35.9 H 27.9 Z"
         id="path953"
         inkscape:connector-curvature="0" />
    </clipPath>
    <clipPath
       clipPathUnits="userSpaceOnUse"
       id="clipPath971">
      <path
         d="M 35.9,80.1 H 72.1 V 27.9 H 35.9 Z"
         id="path969"
         inkscape:connector-curvature="0" />
    </clipPath>
    <clipPath
       clipPathUnits="userSpaceOnUse"
       id="clipPath987">
      <path
         d="M 31.9,76.1 H 76.1 V 31.9 H 31.9 Z"
         id="path985"
         inkscape:connector-curvature="0" />
    </clipPath>
    <clipPath
       clipPathUnits="userSpaceOnUse"
       id="clipPath1003">
      <path
         d="M 18,90 H 90 V 18 H 18 Z"
         id="path1001"
         inkscape:connector-curvature="0" />
    </clipPath>
    <clipPath
       clipPathUnits="userSpaceOnUse"
       id="clipPath853-4">
      <path
         d="M 0,108 H 108 V 0 H 0 Z"
         id="path851-5"
         inkscape:connector-curvature="0" />
    </clipPath>
    <clipPath
       clipPathUnits="userSpaceOnUse"
       id="clipPath863-5">
      <path
         d="M 0,108 H 108 V 0 H 0 Z"
         id="path861-1"
         inkscape:connector-curvature="0" />
    </clipPath>
    <clipPath
       clipPathUnits="userSpaceOnUse"
       id="clipPath871-8">
      <path
         d="M -0.0706177,108.071 H 108.071 V -0.0706635 H -0.0706177 Z"
         id="path869-0"
         inkscape:connector-curvature="0" />
    </clipPath>
    <clipPath
       clipPathUnits="userSpaceOnUse"
       id="clipPath875-9">
      <path
         d="M -0.0352631,108.035 H 108.035 V -0.0353088 H -0.0352631 Z"
         id="path873-6"
         inkscape:connector-curvature="0" />
    </clipPath>
    <clipPath
       clipPathUnits="userSpaceOnUse"
       id="clipPath879-3">
      <path
         d="M -0.0352631,108.035 H 108.035 V -0.0353088 H -0.0352631 Z"
         id="path877-5"
         inkscape:connector-curvature="0" />
    </clipPath>
    <clipPath
       clipPathUnits="userSpaceOnUse"
       id="clipPath923-8">
      <path
         d="M 28,80 H 80 V 28 H 28 Z"
         id="path921-8"
         inkscape:connector-curvature="0" />
    </clipPath>
    <clipPath
       clipPathUnits="userSpaceOnUse"
       id="clipPath939-1">
      <path
         d="M 36,72 H 72 V 36 H 36 Z"
         id="path937-5"
         inkscape:connector-curvature="0" />
    </clipPath>
    <clipPath
       clipPathUnits="userSpaceOnUse"
       id="clipPath955-7">
      <path
         d="M 27.9,72.1 H 80.1 V 35.9 H 27.9 Z"
         id="path953-5"
         inkscape:connector-curvature="0" />
    </clipPath>
    <clipPath
       clipPathUnits="userSpaceOnUse"
       id="clipPath971-4">
      <path
         d="M 35.9,80.1 H 72.1 V 27.9 H 35.9 Z"
         id="path969-5"
         inkscape:connector-curvature="0" />
    </clipPath>
    <clipPath
       clipPathUnits="userSpaceOnUse"
       id="clipPath987-8">
      <path
         d="M 31.9,76.1 H 76.1 V 31.9 H 31.9 Z"
         id="path985-7"
         inkscape:connector-curvature="0" />
    </clipPath>
    <clipPath
       clipPathUnits="userSpaceOnUse"
       id="clipPath1003-4">
      <path
         d="M 18,90 H 90 V 18 H 18 Z"
         id="path1001-3"
         inkscape:connector-curvature="0" />
    </clipPath>
  </defs>
  <sodipodi:namedview
     id="base"
     pagecolor="#ffffff"
     bordercolor="#666666"
     borderopacity="1.0"
     inkscape:pageopacity="0.0"
     inkscape:pageshadow="2"
     inkscape:zoom="5.656854"
     inkscape:cx="14.236512"
     inkscape:cy="16.498439"
     inkscape:document-units="mm"
     inkscape:current-layer="layer1"
     showgrid="true"
     units="px"
     inkscape:window-width="2560"
     inkscape:window-height="1377"
     inkscape:window-x="-8"
     inkscape:window-y="-8"
     inkscape:window-maximized="1"
     borderlayer="false"
     showborder="true">
    <inkscape:grid
       type="xygrid"
       id="grid815"
       spacingx="0.13229167"
       spacingy="0.13229167"
       snapvisiblegridlinesonly="false"
       visible="false" />
    <inkscape:grid
       type="xygrid"
       id="grid817"
       snapvisiblegridlinesonly="false" />
  </sodipodi:namedview>
  <metadata
     id="metadata5">
    <rdf:RDF>
      <cc:Work
         rdf:about="">
        <dc:format>image/svg+xml</dc:format>
        <dc:type
           rdf:resource="http://purl.org/dc/dcmitype/StillImage" />
        <dc:title />
      </cc:Work>
    </rdf:RDF>
  </metadata>
  <g
     inkscape:label="Layer 1"
     inkscape:groupmode="layer"
     id="layer1"
     transform="translate(0,-268.42498)">
    <g
       transform="matrix(0.26458333,0,0,-0.26458333,0,296.99998)"
       id="g857">
      <g
         id="g859"
         clip-path="url(#clipPath863-5)">
        <g
           id="g865">
          <g
             id="g867" />
          <g
             id="g915">
            <g
               clip-path="url(#clipPath871-8)"
               id="g913"
               style="opacity:0.10000598">
              <g
                 id="g891">
                <g
                   id="g881" />
                <g
                   id="g889">
                  <g
                     clip-path="url(#clipPath875-9)"
                     id="g887"
                     style="opacity:0.39999402">
                    <g
                       transform="translate(1e-4,108)"
                       id="g885">
                      <path
                         d="M 0,0 108,-108"
                         style="fill:none;stroke:#000000;stroke-width:0.1;stroke-linecap:butt;stroke-linejoin:miter;stroke-miterlimit:10;stroke-dasharray:none;stroke-opacity:1"
                         id="path883"
                         inkscape:connector-curvature="0" />
                    </g>
                  </g>
                </g>
              </g>
              <g
                 id="g903">
                <g
                   id="g893" />
                <g
                   id="g901">
                  <g
                     clip-path="url(#clipPath879-3)"
                     id="g899"
                     style="opacity:0.10000598">
                    <g
                       transform="translate(108.0001,108)"
                       id="g897">
                      <path
                         d="M 0,0 -108,-108"
                         style="fill:none;stroke:#000000;stroke-width:0.1;stroke-linecap:butt;stroke-linejoin:miter;stroke-miterlimit:10;stroke-dasharray:none;stroke-opacity:1"
                         id="path895"
                         inkscape:connector-curvature="0" />
                    </g>
                  </g>
                </g>
              </g>
              <g
                 transform="translate(1e-4,108)"
                 id="g907">
                <path
                   d="M 0,0 108,-108"
                   style="fill:none;stroke:#000000;stroke-width:0.2;stroke-linecap:butt;stroke-linejoin:miter;stroke-miterlimit:10;stroke-dasharray:none;stroke-opacity:1"
                   id="path905"
                   inkscape:connector-curvature="0" />
              </g>
              <g
                 transform="translate(108.0001,108)"
                 id="g911">
                <path
                   d="M 0,0 -108,-108"
                   style="fill:none;stroke:#000000;stroke-width:0.2;stroke-linecap:butt;stroke-linejoin:miter;stroke-miterlimit:10;stroke-dasharray:none;stroke-opacity:1"
                   id="path909"
                   inkscape:connector-curvature="0" />
              </g>
            </g>
          </g>
        </g>
        <g
           id="g917">
          <g
             id="g919" />
          <g
             id="g931">
            <g
               clip-path="url(#clipPath923-8)"
               id="g929"
               style="opacity:0.30000299">
              <g
                 transform="translate(54,80)"
                 id="g927">
                <path
                   d="m 0,0 c -14.359,0 -26,-11.641 -26,-26 0,-14.359 11.641,-26 26,-26 14.359,0 26,11.641 26,26 C 26,-11.641 14.359,0 0,0 m 0,-0.3 c 14.171,0 25.7,-11.529 25.7,-25.7 0,-14.171 -11.529,-25.7 -25.7,-25.7 -14.171,0 -25.7,11.529 -25.7,25.7 0,14.171 11.529,25.7 25.7,25.7"
                   style="fill:#000000;fill-opacity:1;fill-rule:nonzero;stroke:none"
                   id="path925"
                   inkscape:connector-curvature="0" />
              </g>
            </g>
          </g>
        </g>
        <g
           id="g933">
          <g
             id="g935" />
          <g
             id="g947">
            <g
               clip-path="url(#clipPath939-1)"
               id="g945"
               style="opacity:0.30000299">
              <g
                 transform="translate(54,72)"
                 id="g943">
                <path
                   d="m 0,0 c -9.941,0 -18,-8.059 -18,-18 0,-9.941 8.059,-18 18,-18 9.941,0 18,8.059 18,18 C 18,-8.059 9.941,0 0,0 m 0,-0.3 c 9.76,0 17.7,-7.94 17.7,-17.7 0,-9.76 -7.94,-17.7 -17.7,-17.7 -9.76,0 -17.7,7.94 -17.7,17.7 0,9.76 7.94,17.7 17.7,17.7"
                   style="fill:#000000;fill-opacity:1;fill-rule:nonzero;stroke:none"
                   id="path941"
                   inkscape:connector-curvature="0" />
              </g>
            </g>
          </g>
        </g>
        <g
           id="g949">
          <g
             id="g951" />
          <g
             id="g963">
            <g
               clip-path="url(#clipPath955-7)"
               id="g961"
               style="opacity:0.10000598">
              <g
                 transform="translate(78,36)"
                 id="g959">
                <path
                   d="m 0,0 h -48 c -1.105,0 -2,0.895 -2,2 v 32 c 0,1.105 0.895,2 2,2 H 0 c 1.105,0 2,-0.895 2,-2 V 2 C 2,0.895 1.105,0 0,0 Z"
                   style="fill:none;stroke:#000000;stroke-width:0.2;stroke-linecap:butt;stroke-linejoin:miter;stroke-miterlimit:10;stroke-dasharray:none;stroke-opacity:1"
                   id="path957"
                   inkscape:connector-curvature="0" />
              </g>
            </g>
          </g>
        </g>
        <g
           id="g965">
          <g
             id="g967" />
          <g
             id="g979">
            <g
               clip-path="url(#clipPath971-4)"
               id="g977"
               style="opacity:0.10000598">
              <g
                 transform="translate(36,30)"
                 id="g975">
                <path
                   d="m 0,0 v 48 c 0,1.105 0.895,2 2,2 h 32 c 1.105,0 2,-0.895 2,-2 V 0 c 0,-1.105 -0.895,-2 -2,-2 H 2 C 0.895,-2 0,-1.105 0,0 Z"
                   style="fill:none;stroke:#000000;stroke-width:0.2;stroke-linecap:butt;stroke-linejoin:miter;stroke-miterlimit:10;stroke-dasharray:none;stroke-opacity:1"
                   id="path973"
                   inkscape:connector-curvature="0" />
              </g>
            </g>
          </g>
        </g>
        <g
           id="g981">
          <g
             id="g983" />
          <g
             id="g995">
            <g
               clip-path="url(#clipPath987-8)"
               id="g993"
               style="opacity:0.10000598">
              <g
                 transform="translate(74,32)"
                 id="g991">
                <path
                   d="m 0,0 h -40 c -1.1,0 -2,0.9 -2,2 v 40 c 0,1.1 0.9,2 2,2 H 0 c 1.1,0 2,-0.9 2,-2 V 2 C 2,0.9 1.1,0 0,0 Z"
                   style="fill:none;stroke:#000000;stroke-width:0.2;stroke-linecap:butt;stroke-linejoin:miter;stroke-miterlimit:10;stroke-dasharray:none;stroke-opacity:1"
                   id="path989"
                   inkscape:connector-curvature="0" />
              </g>
            </g>
          </g>
        </g>
        <g
           id="g997">
          <g
             id="g999" />
          <g
             id="g1011">
            <g
               clip-path="url(#clipPath1003-4)"
               id="g1009"
               style="opacity:0.60000598">
              <g
                 transform="translate(54,90)"
                 id="g1007">
                <path
                   d="m 0,0 c -19.882,0 -36,-16.118 -36,-36 0,-19.882 16.118,-36 36,-36 19.882,0 36,16.118 36,36 C 36,-16.118 19.882,0 0,0 m 0,-0.6 c 19.52,0 35.4,-15.88 35.4,-35.4 0,-19.52 -15.88,-35.4 -35.4,-35.4 -19.52,0 -35.4,15.88 -35.4,35.4 0,19.52 15.88,35.4 35.4,35.4"
                   style="fill:#00b28e;fill-opacity:1;fill-rule:nonzero;stroke:none"
                   id="path1005"
                   inkscape:connector-curvature="0" />
              </g>
            </g>
          </g>
        </g>
      </g>
    </g>
  </g>
</svg>
