<?xml version="1.0" encoding="UTF-8" standalone="no"?>
<!-- Created with Inkscape (http://www.inkscape.org/) -->

<svg
   xmlns:dc="http://purl.org/dc/elements/1.1/"
   xmlns:cc="http://creativecommons.org/ns#"
   xmlns:rdf="http://www.w3.org/1999/02/22-rdf-syntax-ns#"
   xmlns:svg="http://www.w3.org/2000/svg"
   xmlns="http://www.w3.org/2000/svg"
   xmlns:sodipodi="http://sodipodi.sourceforge.net/DTD/sodipodi-0.dtd"
   xmlns:inkscape="http://www.inkscape.org/namespaces/inkscape"
   width="108"
   height="108"
   viewBox="0 0 28.574999 28.575001"
   version="1.1"
   id="svg8"
   inkscape:version="0.92.2 (5c3e80d, 2017-08-06)"
   sodipodi:docname="adaptive_bg.svg"
   inkscape:export-filename="D:\sources\debatekeeper\art\adaptive_bg.png"
   inkscape:export-xdpi="384"
   inkscape:export-ydpi="384">
  <defs
     id="defs2">
    <clipPath
       clipPathUnits="userSpaceOnUse"
       id="clipPath853">
      <path
         d="M 0,108 H 108 V 0 H 0 Z"
         id="path851"
         inkscape:connector-curvature="0" />
    </clipPath>
    <clipPath
       clipPathUnits="userSpaceOnUse"
       id="clipPath863">
      <path
         d="M 0,108 H 108 V 0 H 0 Z"
         id="path861"
         inkscape:connector-curvature="0" />
    </clipPath>
    <clipPath
       clipPathUnits="userSpaceOnUse"
       id="clipPath871">
      <path
         d="M -0.0706177,108.071 H 108.071 V -0.0706635 H -0.0706177 Z"
         id="path869"
         inkscape:connector-curvature="0" />
    </clipPath>
    <clipPath
       clipPathUnits="userSpaceOnUse"
       id="clipPath875">
      <path
         d="M -0.0352631,108.035 H 108.035 V -0.0353088 H -0.0352631 Z"
         id="path873"
         inkscape:connector-curvature="0" />
    </clipPath>
    <clipPath
       clipPathUnits="userSpaceOnUse"
       id="clipPath879">
      <path
         d="M -0.0352631,108.035 H 108.035 V -0.0353088 H -0.0352631 Z"
         id="path877"
         inkscape:connector-curvature="0" />
    </clipPath>
    <clipPath
       clipPathUnits="userSpaceOnUse"
       id="clipPath923">
      <path
         d="M 28,80 H 80 V 28 H 28 Z"
         id="path921"
         inkscape:connector-curvature="0" />
    </clipPath>
    <clipPath
       clipPathUnits="userSpaceOnUse"
       id="clipPath939">
      <path
         d="M 36,72 H 72 V 36 H 36 Z"
         id="path937"
         inkscape:connector-curvature="0" />
    </clipPath>
    <clipPath
       clipPathUnits="userSpaceOnUse"
       id="clipPath955">
      <path
         d="M 27.9,72.1 H 80.1 V 35.9 H 27.9 Z"
         id="path953"
         inkscape:connector-curvature="0" />
    </clipPath>
    <clipPath
       clipPathUnits="userSpaceOnUse"
       id="clipPath971">
      <path
         d="M 35.9,80.1 H 72.1 V 27.9 H 35.9 Z"
         id="path969"
         inkscape:connector-curvature="0" />
    </clipPath>
    <clipPath
       clipPathUnits="userSpaceOnUse"
       id="clipPath987">
      <path
         d="M 31.9,76.1 H 76.1 V 31.9 H 31.9 Z"
         id="path985"
         inkscape:connector-curvature="0" />
    </clipPath>
    <clipPath
       clipPathUnits="userSpaceOnUse"
       id="clipPath1003">
      <path
         d="M 18,90 H 90 V 18 H 18 Z"
         id="path1001"
         inkscape:connector-curvature="0" />
    </clipPath>
    <clipPath
       clipPathUnits="userSpaceOnUse"
       id="clipPath853-4">
      <path
         d="M 0,108 H 108 V 0 H 0 Z"
         id="path851-5"
         inkscape:connector-curvature="0" />
    </clipPath>
    <clipPath
       clipPathUnits="userSpaceOnUse"
       id="clipPath863-5">
      <path
         d="M 0,108 H 108 V 0 H 0 Z"
         id="path861-1"
         inkscape:connector-curvature="0" />
    </clipPath>
    <clipPath
       clipPathUnits="userSpaceOnUse"
       id="clipPath871-8">
      <path
         d="M -0.0706177,108.071 H 108.071 V -0.0706635 H -0.0706177 Z"
         id="path869-0"
         inkscape:connector-curvature="0" />
    </clipPath>
    <clipPath
       clipPathUnits="userSpaceOnUse"
       id="clipPath875-9">
      <path
         d="M -0.0352631,108.035 H 108.035 V -0.0353088 H -0.0352631 Z"
         id="path873-6"
         inkscape:connector-curvature="0" />
    </clipPath>
    <clipPath
       clipPathUnits="userSpaceOnUse"
       id="clipPath879-3">
      <path
         d="M -0.0352631,108.035 H 108.035 V -0.0353088 H -0.0352631 Z"
         id="path877-5"
         inkscape:connector-curvature="0" />
    </clipPath>
    <clipPath
       clipPathUnits="userSpaceOnUse"
       id="clipPath923-8">
      <path
         d="M 28,80 H 80 V 28 H 28 Z"
         id="path921-8"
         inkscape:connector-curvature="0" />
    </clipPath>
    <clipPath
       clipPathUnits="userSpaceOnUse"
       id="clipPath939-1">
      <path
         d="M 36,72 H 72 V 36 H 36 Z"
         id="path937-5"
         inkscape:connector-curvature="0" />
    </clipPath>
    <clipPath
       clipPathUnits="userSpaceOnUse"
       id="clipPath955-7">
      <path
         d="M 27.9,72.1 H 80.1 V 35.9 H 27.9 Z"
         id="path953-5"
         inkscape:connector-curvature="0" />
    </clipPath>
    <clipPath
       clipPathUnits="userSpaceOnUse"
       id="clipPath971-4">
      <path
         d="M 35.9,80.1 H 72.1 V 27.9 H 35.9 Z"
         id="path969-5"
         inkscape:connector-curvature="0" />
    </clipPath>
    <clipPath
       clipPathUnits="userSpaceOnUse"
       id="clipPath987-8">
      <path
         d="M 31.9,76.1 H 76.1 V 31.9 H 31.9 Z"
         id="path985-7"
         inkscape:connector-curvature="0" />
    </clipPath>
    <clipPath
       clipPathUnits="userSpaceOnUse"
       id="clipPath1003-4">
      <path
         d="M 18,90 H 90 V 18 H 18 Z"
         id="path1001-3"
         inkscape:connector-curvature="0" />
    </clipPath>
    <filter
       inkscape:collect="always"
       style="color-interpolation-filters:sRGB"
       id="filter932"
       x="-0.076316918"
       width="1.1526338"
       y="-0.068145314"
       height="1.1362906">
      <feGaussianBlur
         inkscape:collect="always"
         stdDeviation="1.6624931"
         id="feGaussianBlur934" />
    </filter>
  </defs>
  <sodipodi:namedview
     id="base"
     pagecolor="#ffde02"
     bordercolor="#666666"
     borderopacity="1.0"
     inkscape:pageopacity="1"
     inkscape:pageshadow="2"
     inkscape:zoom="11.313709"
     inkscape:cx="72.509392"
     inkscape:cy="37.756466"
     inkscape:document-units="mm"
     inkscape:current-layer="layer1"
     showgrid="true"
     units="px"
     inkscape:window-width="2560"
     inkscape:window-height="1377"
     inkscape:window-x="-8"
     inkscape:window-y="-8"
     inkscape:window-maximized="1"
     borderlayer="false"
     showborder="true">
    <inkscape:grid
       type="xygrid"
       id="grid815"
       spacingx="0.13229167"
       spacingy="0.13229167"
       snapvisiblegridlinesonly="false"
       visible="false" />
    <inkscape:grid
       type="xygrid"
       id="grid817"
       snapvisiblegridlinesonly="false" />
  </sodipodi:namedview>
  <metadata
     id="metadata5">
    <rdf:RDF>
      <cc:Work
         rdf:about="">
        <dc:format>image/svg+xml</dc:format>
        <dc:type
           rdf:resource="http://purl.org/dc/dcmitype/StillImage" />
        <dc:title></dc:title>
      </cc:Work>
    </rdf:RDF>
  </metadata>
  <g
     inkscape:label="Layer 1"
     inkscape:groupmode="layer"
     id="layer1"
     transform="translate(0,-268.42498)">
    <path
       style="display:inline;opacity:0.5;fill:#000000;fill-opacity:1;stroke:none;stroke-width:0.34111783;stroke-miterlimit:4;stroke-dasharray:none;stroke-opacity:1;filter:url(#filter932)"
       d="m 53.5,24.875 c -0.28611,-0.0038 -0.563609,0.02553 -0.824219,0.111328 -0.900854,0.28611 -1.769937,2.232124 -1.484375,3.324219 0.114255,0.436498 -0.03681,1.267145 -0.33789,1.84375 -0.300737,0.576567 -0.547487,1.429536 -0.548828,1.894531 -0.0028,0.972586 -0.214052,1.053798 -4.654297,1.878906 -5.194182,0.965254 -8.418293,3.481436 -10.083985,7.865235 -0.401295,1.056 -1.250196,2.742364 -1.886718,3.746093 -1.450041,2.286463 -1.768096,3.69863 -1.212891,5.38086 0.369566,1.119836 0.321314,1.506713 -0.318359,2.558594 -0.41444,0.681562 -1.305155,1.57291 -1.978516,1.982422 -1.437615,0.874242 -2.353067,2.801813 -2.060547,4.332031 0.264767,1.385045 2.177333,3.301438 4.171875,4.179687 1.864258,0.8208 6.784428,1.759305 11.822266,2.25586 2.757925,0.272126 4.341007,0.271905 9.396484,0.167968 5.741461,-0.0703 22.455742,-0.377362 25.814453,-4.210937 1.532213,-2.429443 1.44615,-5.301177 -0.970703,-6.794922 -1.786027,-1.103698 -2.692769,-2.862862 -2.123047,-4.113281 0.635796,-1.395477 0.532062,-2.099265 -0.677734,-4.611328 -0.606452,-1.25915 -1.644431,-3.4253 -2.304688,-4.8125 -1.460073,-3.067654 -4.24236,-5.977326 -6.896484,-7.212891 -1.08573,-0.505512 -3.397272,-1.123434 -5.134766,-1.369141 l -3.158203,-0.443359 v -1.46875 c 0,-0.806513 -0.17475,-1.574748 -0.388672,-1.707031 C 57.446311,29.520438 57.372213,29.016881 57.494141,28.53125 57.900882,26.910513 55.502307,24.908663 53.5,24.876953 Z M 30.001953,72 C 28.699967,72.091843 28.69518,74.032806 30,74 H 56.109375 L 65.431641,83.425781 63.181641,74 H 78 c 1.363604,0.03024 1.363604,-2.030614 0,-2 H 60.820312 L 62.5,78 56.892578,72 H 36.998047 c -0.03186,-0.0015 -6.964212,-0.0015 -6.996094,0 z"
       transform="matrix(0.26458333,0,0,0.26458333,0,268.42498)"
       id="path929"
       inkscape:connector-curvature="0" />
  </g>
</svg>
