<?xml version="1.0" encoding="UTF-8" standalone="no"?>
<!-- Created with Inkscape (http://www.inkscape.org/) -->

<svg
   xmlns:dc="http://purl.org/dc/elements/1.1/"
   xmlns:cc="http://creativecommons.org/ns#"
   xmlns:rdf="http://www.w3.org/1999/02/22-rdf-syntax-ns#"
   xmlns:svg="http://www.w3.org/2000/svg"
   xmlns="http://www.w3.org/2000/svg"
   xmlns:sodipodi="http://sodipodi.sourceforge.net/DTD/sodipodi-0.dtd"
   xmlns:inkscape="http://www.inkscape.org/namespaces/inkscape"
   width="192"
   height="192"
   viewBox="0 0 50.799999 50.800001"
   version="1.1"
   id="svg8"
   inkscape:version="0.92.2 (5c3e80d, 2017-08-06)"
   sodipodi:docname="traced.svg">
  <defs
     id="defs2" />
  <sodipodi:namedview
     id="base"
     pagecolor="#ffffff"
     bordercolor="#666666"
     borderopacity="1.0"
     inkscape:pageopacity="0.0"
     inkscape:pageshadow="2"
     inkscape:zoom="3.959798"
     inkscape:cx="135.7222"
     inkscape:cy="61.421803"
     inkscape:document-units="mm"
     inkscape:current-layer="layer1"
     showgrid="true"
     units="px"
     inkscape:window-width="2560"
     inkscape:window-height="1377"
     inkscape:window-x="-8"
     inkscape:window-y="-8"
     inkscape:window-maximized="1">
    <inkscape:grid
       type="xygrid"
       id="grid815"
       spacingx="0.13229167"
       spacingy="0.13229167"
       snapvisiblegridlinesonly="false"
       visible="false" />
    <inkscape:grid
       type="xygrid"
       id="grid817"
       snapvisiblegridlinesonly="false" />
  </sodipodi:namedview>
  <metadata
     id="metadata5">
    <rdf:RDF>
      <cc:Work
         rdf:about="">
        <dc:format>image/svg+xml</dc:format>
        <dc:type
           rdf:resource="http://purl.org/dc/dcmitype/StillImage" />
        <dc:title />
      </cc:Work>
    </rdf:RDF>
  </metadata>
  <g
     inkscape:label="Layer 1"
     inkscape:groupmode="layer"
     id="layer1"
     transform="translate(0,-246.19998)">
    <path
       inkscape:connector-curvature="0"
       id="path840"
       d="m 24.405745,246.22427 c -0.540954,0.001 -1.163246,0.017 -1.916162,0.0434 -3.074938,0.10781 -3.92157,0.23947 -6.085417,0.94826 -3.250346,1.06469 -6.00626,2.69942 -8.5379795,5.06377 -3.327102,3.10715 -5.5199378,6.88378 -6.5773763,11.32748 -0.40859419,1.71704 -0.50911853,2.69729 -0.46095378,5.08134 3.6513e-4,0.34982 0.0101907,0.69861 0.0268718,1.04696 0.0976914,3.20305 0.20614288,3.87738 0.96221508,6.09782 3.2304301,9.48716 11.7602357,15.61173 21.7309727,15.60474 2.62634,-0.002 6.450224,-0.81358 8.684226,-1.8433 l 1.804022,-0.83148 7.918897,4.11551 c 4.355346,2.2636 8.006619,4.11662 8.113717,4.11861 0.221256,0.003 0.187111,-0.091 -3.737239,-10.26862 l -2.889748,-7.4936 0.734322,-1.63452 c 2.96472,-6.6008 2.239619,-14.91868 -1.84278,-21.13721 -3.242371,-4.93894 -8.161369,-8.38369 -13.943335,-9.76478 -1.472594,-0.35175 -2.36139,-0.47794 -3.984253,-0.47439 z"
       style="display:inline;fill:#ffde02;fill-opacity:1;stroke-width:0.26458332"
       sodipodi:nodetypes="cccssccscccccccccccc" />
    <path
       style="display:inline;fill:#fefefd;stroke-width:0.99999994"
       d="m 86.257812,27.164062 c -0.738353,-0.01172 -1.45428,0.08138 -2.126953,0.294922 -2.325358,0.738067 -4.569145,5.759392 -3.832031,8.578125 0.294992,1.128 -0.09855,3.269473 -0.875,4.757813 -0.776443,1.488302 -1.414567,3.688218 -1.417969,4.888672 C 77.998678,48.194183 77.461391,48.411025 66,50.541016 52.592436,53.032669 44.268333,59.52225 39.96875,70.837891 c -1.03581,2.726022 -3.226115,7.077178 -4.869141,9.667968 -3.742952,5.901997 -4.565951,9.550128 -3.132812,13.892579 0.953972,2.890582 0.828858,3.888454 -0.822266,6.603512 -1.069778,1.75911 -3.367344,4.06212 -5.105469,5.11914 -3.710866,2.25672 -6.07734,7.22779 -5.322265,11.17774 0.683426,3.57509 5.623036,8.52413 10.771484,10.79101 4.812138,2.11881 17.507725,4.54251 30.511719,5.82422 14.237862,1.4033 53.63412,0.59842 65,-1.32812 15.4058,-2.61135 22.31822,-5.04622 25.89258,-9.11719 4.89162,-5.57125 3.73267,-13.68342 -2.50586,-17.53906 -4.6102,-2.84924 -6.955,-7.387558 -5.48438,-10.615237 1.64117,-3.601965 1.37474,-5.419988 -1.74804,-11.904297 -1.56534,-3.250356 -4.24101,-8.839084 -5.94532,-12.419922 -3.76882,-7.918488 -10.95368,-15.433881 -17.80468,-18.623046 -2.80255,-1.304618 -8.76505,-2.891149 -13.25,-3.525391 L 98,47.6875 v -3.785156 c 0,-2.08184 -0.451887,-4.063006 -1.003906,-4.404297 -0.552019,-0.341291 -0.746438,-1.646192 -0.431641,-2.900391 1.049934,-4.183256 -5.138167,-9.351578 -10.306641,-9.433594 z m 1.917969,26.275391 c 0.153279,0.0053 0.316213,0.05212 0.492188,0.126953 h 0.002 c 0.0011,5.67e-4 0.0027,0.0015 0.0039,0.002 0.478987,0.205418 1.075882,0.662159 2.001953,1.390625 C 92.257812,56.203432 94.75889,57 97.085938,57 c 5.687612,0 13.826872,1.953542 19.003902,4.560547 6.30265,3.17382 10.28896,8.063036 12.85157,15.763672 1.19175,3.581215 3.31998,7.663749 4.72851,9.072265 3.33696,3.336945 2.58936,4.932521 -3.83789,8.189454 l -5.26367,2.666015 5.69336,2.878907 c 3.54086,1.79044 6.25648,3.96906 7.18555,5.76562 0.82139,1.58846 3.30687,4.32453 5.52343,6.08008 2.21655,1.75552 4.0293,3.5924 4.0293,4.08203 0,1.64856 -5.64251,3.826 -15.60156,6.02149 -8.73221,1.92499 -13.49006,2.21918 -40.39844,2.5 -1.101298,0.0113 -1.812381,0.008 -2.853516,0.0156 -8.63159,0.17084 -16.611033,0.18948 -21.277343,-0.043 C 59.795316,124.39294 55.16157,124.0454 51.429688,123.44922 43.535143,122.18773 35.698904,120.04475 32.630859,118.44336 31.579484,117.97799 31,117.54074 31,117.15625 c 0,-0.18463 0.341006,-0.6792 0.845703,-1.30078 1.565593,-2.65081 6.15501,-7.81481 10.300781,-11.80859 0.287112,-0.29035 0.589791,-0.57787 0.90625,-0.86133 2.21983,-2.07511 4.236575,-3.745 5.419922,-4.277347 l 3.378906,-1.519531 C 51.93921,97.27831 52,97.17835 52,97.103516 c 0,-0.0514 -0.02855,-0.113483 -0.06445,-0.177735 L 49.478516,95.992188 C 47.845548,95.371325 45.012115,93.720376 43.181641,92.324219 39.86272,89.792729 39.858272,89.779561 41.789062,87.642578 42.853944,86.46397 45.609451,81.5779 47.912109,76.785156 54.394105,63.29349 61.12295,58.838451 77.289062,57.335938 c 4.900974,-0.455471 7.597421,-1.222413 8.910157,-2.535157 0.921543,-0.921524 1.405332,-1.380226 1.976562,-1.361328 z"
       transform="matrix(0.26458333,0,0,0.26458333,0,246.19998)"
       id="path842"
       inkscape:connector-curvature="0"
       sodipodi:nodetypes="cccccccccssccccsccsscccsscccccccscsccccccsccccccscccccscccccccc" />
  </g>
</svg>
